<svg xmlns="http://www.w3.org/2000/svg" viewBox="0 0 512 512" style="enable-background:new 0 0 512 512" xml:space="preserve"><circle style="fill:#bed2fc" cx="363.761" cy="171.145" r="64.379"/><path style="fill:#9cbbf2" d="M327.106 171.148c0-30.797 21.629-56.528 50.521-62.87-40.341-8.856-78.244 21.879-78.244 62.87 0 41.037 37.945 71.718 78.244 62.87-28.892-6.343-50.521-32.073-50.521-62.87z"/><path style="fill:#4ad857" d="M15.636 136.376c-3.913-1.395-8.018 1.513-8.018 5.651v243.246a6.002 6.002 0 0 0 3.966 5.646c101.722 36.515 95.679 34.525 97.222 34.525V169.822l-93.17-33.446z"/><path style="fill:#2cc433" d="M32.622 397.793c0-268.979-.531-252.559 1.104-254.923l-18.09-6.494c-3.913-1.395-8.018 1.513-8.018 5.651v243.246a6.002 6.002 0 0 0 3.966 5.646l21.092 7.571c-.025-.23-.054-.461-.054-.697z"/><path style="fill:#01cc79" d="M209.996 133.873c-1.541 0 4.814-2.103-101.189 35.948v255.622c1.541 0-4.814 2.103 101.189-35.948V133.873z"/><path style="fill:#12db84" d="M146.438 156.314c-25.761 80.532-3.738 172.152 63.558 232.011V133.874c-1.495-.001 2.898-1.417-63.558 22.44z"/><path style="fill:#5fed65" d="M311.185 234.661c-22.471-18.839-33.02-47.223-29.367-75.382-75.672-27.162-70.366-25.406-71.821-25.406v255.622c106.135 38.099 99.647 35.948 101.189 35.948l-.001-190.782z"/><path style="fill:#12db84" d="M311.185 234.661v190.783c1.543 0-4.514 1.996 97.223-34.525a6 6 0 0 0 3.966-5.646V239.768c-30.713 20.855-72.25 19.151-101.189-5.107z"/><path style="fill:#87a1ff" d="M423.628 230.654c-32.792 32.792-86.148 32.792-118.941 0-32.794-32.792-32.794-86.149 0-118.943 32.792-32.792 86.148-32.792 118.941.002 32.791 32.792 32.791 86.15 0 118.941zM319.976 127.001c-24.361 24.36-24.361 64.001 0 88.364 24.361 24.36 64.002 24.36 88.364 0 24.361-24.36 24.361-64.001-.001-88.364-24.362-24.363-64.002-24.363-88.363 0z"/><path style="fill:#4c73c1" d="M303.619 155.816c6.588-35.732 35.387-63.196 71.591-67.956-25.053-3.294-51.315 4.645-70.523 23.852-32.794 32.794-32.794 86.151 0 118.943 19.208 19.208 45.471 27.147 70.525 23.852-53.541-7.04-81.24-60.424-71.593-98.691z"/><path style="fill:#87a1ff" d="m413.519 238.747 68.821 68.82c4.07 4.072 10.654 4.086 14.708.03l3.523-3.523c4.054-4.052 4.04-10.638-.03-14.706l-68.822-68.821a84.378 84.378 0 0 1-18.2 18.2z"/><path style="fill:#4c73c1" d="m490.673 298.228-67.625-67.623a84.147 84.147 0 0 1-9.527 8.142l68.821 68.82c4.07 4.072 10.655 4.086 14.708.03 3.676-3.676 4.736-4.477 5.718-6.778a11.364 11.364 0 0 1-12.095-2.591z"/><path d="M365.04 240.133c38.439 0 69.954-30.968 69.954-69.949 0-61.98-75.34-93.591-119.441-49.486l.001-.001c-43.609 43.606-13.189 119.436 49.486 119.436zm-38.878-108.828.001-.001c21.45-21.451 56.304-21.451 77.754.001 34.1 34.097 10.559 93.839-38.876 93.832-49.26-.003-73.113-59.598-38.879-93.832z"/><path d="m506.759 283.092-64.163-64.163c21.882-34.719 18.531-82.208-12.783-113.52a7.5 7.5 0 1 0-10.607 10.608c35.981 35.981 27.226 96.276-16.66 120.941-49.045 27.524-111.35-5.827-113.979-63.031-.985-20.664 6.265-41.87 22.307-57.912 23.773-23.774 61.048-29.204 90.637-13.205a7.501 7.501 0 0 0 7.136-13.196c-34.235-18.511-78.699-13.887-108.381 15.793-12.233 12.234-20.551 27.345-24.378 43.816-68.649-24.642-65.058-24.059-68.58-22.772l-98.619 35.401-98.654-35.414A7.502 7.502 0 0 0 0 133.498v255.997a7.502 7.502 0 0 0 4.967 7.06l22.457 8.061a7.5 7.5 0 1 0 5.068-14.119l-17.49-6.279V144.16l86.186 30.937v56.857a7.5 7.5 0 0 0 7.501 7.501 7.5 7.5 0 0 0 7.501-7.501v-56.857l86.187-30.938v151.524a7.5 7.5 0 0 0 7.501 7.501 7.5 7.5 0 0 0 7.501-7.501V144.16l56.293 20.208c-1.689 26.134 7.69 51.686 26.594 70.59l.001.001.001.001a112.53 112.53 0 0 0 3.299 3.135v81.4c0 4.144 3.357 7.501 7.501 7.501s7.501-3.357 7.501-7.501v-70.361c26.245 15.442 58.701 16.775 86.186 3.581v131.503l-86.186 30.938v-64.402c4.43.16 8.872.243 13.328.243a7.5 7.5 0 0 0 7.501-7.501 7.5 7.5 0 0 0-7.501-7.501c-94.115 0-181.985-37.271-247.421-104.947a7.498 7.498 0 0 0-10.606-.179 7.499 7.499 0 0 0-.178 10.605 364.07 364.07 0 0 0 27.497 25.631v148.049l-44.91-16.122a7.502 7.502 0 0 0-5.068 14.119c57.825 20.758 55.932 21.175 60.014 19.725l98.655-35.414c106.148 38.103 99.971 36.545 103.342 35.532.471-.14 101.107-36.276 101.569-36.442a7.502 7.502 0 0 0 4.967-7.06V253.709l58.192 58.189a17.76 17.76 0 0 0 12.645 5.24c8.388 0 12.367-4.961 16.165-8.761 6.985-6.983 6.989-18.296-.001-25.285zM116.19 415.155V279.037a357.567 357.567 0 0 0 73.078 42.521 360.287 360.287 0 0 0 13.109 5.374v57.286l-86.187 30.937zm101.19-30.937v-51.861c27.874 9.389 56.7 15.261 86.187 17.545v65.253l-86.187-30.937zm275.246-82.924a2.874 2.874 0 0 1-4.068-.002l-62.651-62.649a92.63 92.63 0 0 0 7.593-7.593c66.998 66.997 63.493 62.978 63.493 64.684.001 1.5-.629 1.821-4.367 5.56z"/><path d="M36.594 226.027a7.502 7.502 0 0 0 10.608.001l5.704-5.704c5.943 5.943 7.175 7.9 11.008 7.9a7.5 7.5 0 0 0 5.304-12.804l-5.703-5.703 5.703-5.703a7.5 7.5 0 0 0-10.608-10.608l-5.704 5.704-5.704-5.704a7.502 7.502 0 0 0-10.608 10.608l5.703 5.703-5.703 5.703a7.501 7.501 0 0 0 0 10.607zM352.544 361.14c3.818 0 5.036-1.928 11.009-7.901 5.949 5.949 7.178 7.901 11.009 7.901 6.625 0 10.044-8.066 5.304-12.806l-5.704-5.703 5.704-5.703a7.501 7.501 0 0 0-10.606-10.608l-5.705 5.705-5.705-5.705a7.502 7.502 0 0 0-10.607 10.608l5.704 5.703-5.704 5.703c-4.745 4.74-1.32 12.806 5.301 12.806z"/></svg>